<svg height="682.66669pt" viewBox="-21 -21 682.66669 682.66669" fill="#eee" width="682.66669pt" xmlns="http://www.w3.org/2000/svg"><path d="m546.273438 93.726562c-60.4375-60.441406-140.800782-93.726562-226.273438-93.726562s-165.835938 33.285156-226.273438 93.726562c-60.441406 60.4375-93.726562 140.800782-93.726562 226.273438s33.285156 165.835938 93.726562 226.273438c60.4375 60.441406 140.800782 93.726562 226.273438 93.726562 2.574219 0 5.195312-.03125 7.78125-.09375 10.359375-.253906 18.546875-8.847656 18.292969-19.199219-.25-10.355469-8.808594-18.523437-19.199219-18.289062-2.285156.050781-4.601562.082031-6.875.082031-155.773438 0-282.5-126.726562-282.5-282.5s126.726562-282.5 282.5-282.5 282.5 126.726562 282.5 282.5c0 56.867188-16.898438 111.78125-48.867188 158.8125-6.230468 9.175781-14.601562 14.414062-25.570312 16.023438-10.976562 1.605468-20.492188-1.011719-29.097656-8.003907l-14.855469-12.074219c1.78125-1.429687 3.527344-2.898437 5.242187-4.421874 11.019532-9.785157 16.503907-23.269532 15.4375-37.972657-1.0625-14.703125-8.4375-27.253906-20.757812-35.351562l-59.386719-39.027344c-16.769531-11.023437-38.542969-10.058594-54.183593 2.386719-8.796876 6.996094-20.945313 6.308594-28.890626-1.636719l-60.304687-60.300781c-7.945313-7.945313-8.632813-20.097656-1.636719-28.894532 12.445313-15.636718 13.410156-37.414062 2.386719-54.183593l-39.027344-59.386719c-8.097656-12.320312-20.648437-19.6875-35.351562-20.757812-14.707031-1.054688-28.1875 4.417968-37.972657 15.4375-48.261718 54.347656-45.792968 137.199218 5.625 188.617187l125.445313 125.445313c26.75 26.753906 62.007813 40.257812 97.34375 40.253906 17.484375 0 34.972656-3.339844 51.46875-9.984375l25.757813 20.949219c16.730468 13.601562 36.851562 19.140624 58.191406 16.007812 21.339844-3.125 39.027344-14.207031 51.152344-32.039062 36.210937-53.277344 55.351562-115.484376 55.351562-179.898438 0-85.472656-33.285156-165.835938-93.726562-226.273438zm0 0"/><path d="m537.148438 275.257812c-8.117188 0-15.59375-5.304687-17.988282-13.492187-24.882812-85.101563-101.113281-145-189.6875-149.046875-10.339844-.472656-18.34375-9.242188-17.871094-19.589844.472657-10.339844 9.238282-18.339844 19.585938-17.871094 104.578125 4.78125 194.585938 75.503907 223.964844 175.984376 2.902344 9.9375-2.792969 20.355468-12.734375 23.257812-1.753907.515625-3.527344.757812-5.269531.757812zm0 0"/><path d="m465.160156 296.308594c-8.113281 0-15.59375-5.3125-17.988281-13.492188-15.886719-54.34375-64.558594-92.589844-121.121094-95.179687-10.34375-.46875-18.347656-9.238281-17.871093-19.585938.472656-10.347656 9.242187-18.347656 19.585937-17.871093 72.5625 3.316406 135.015625 52.390624 155.402344 122.109374 2.90625 9.941407-2.796875 20.351563-12.734375 23.257813-1.757813.515625-3.527344.761719-5.273438.761719zm0 0"/></svg>