<?xml version="1.0" encoding="utf-8"?>
<!-- Generator: Adobe Illustrator 24.2.2, SVG Export Plug-In . SVG Version: 6.00 Build 0)  -->
<svg version="1.1" id="Layer_1" xmlns="http://www.w3.org/2000/svg" xmlns:xlink="http://www.w3.org/1999/xlink" x="0px" y="0px"
	 viewBox="0 0 1745.7 2000" style="enable-background:new 0 0 1745.7 2000;" xml:space="preserve">
<style type="text/css">
	.st0{fill:#FFFFFF;}
</style>
<path class="st0" d="M1557.1,876.7h-78.9V605.3C1478.2,271,1207.2,0,872.9,0h0C538.6,0,267.6,271,267.6,605.3v271.3h-78.9
	C84.4,876.7,0,961.1,0,1065.3v746.1C0,1915.6,84.4,2000,188.6,2000h1368.5c104.2,0,188.6-84.4,188.6-188.6v-746.1
	C1745.7,961.1,1661.3,876.7,1557.1,876.7z M601.5,876.7V587.3c0-149.9,121.5-271.3,271.3-271.3h0c149.9,0,271.3,121.5,271.3,271.3
	v289.4H601.5z"/>
</svg>
