<?xml version="1.0"?>
<svg xmlns="http://www.w3.org/2000/svg" xmlns:xlink="http://www.w3.org/1999/xlink" xmlns:svgjs="http://svgjs.com/svgjs" version="1.1" width="512" height="512" x="0" y="0" viewBox="0 0 512 512" style="enable-background:new 0 0 512 512" xml:space="preserve" class=""><g><g xmlns="http://www.w3.org/2000/svg"><path d="m261.361 334.651-5.83-11.792-5.83 11.792c-2.197 4.438-6.416 7.5-11.279 8.203l-13.008 1.89 9.404 9.17c3.545 3.442 5.156 8.408 4.336 13.271l-2.227 12.949 11.631-6.108c4.241-2.264 9.552-2.345 13.945 0l11.631 6.108-2.227-12.949c-.82-4.863.791-9.829 4.336-13.271l9.404-9.17-13.008-1.89c-4.862-.703-9.08-3.764-11.278-8.203z" fill="#6200ff" data-original="#000000" style="" class=""/><path d="m256 182c-90.967 0-165 74.019-165 165s74.033 165 165 165 165-74.019 165-165-74.033-165-165-165zm72.334 163.008-25.518 24.888 6.035 35.127c.967 5.625-1.348 11.309-5.977 14.663-4.458 3.256-10.574 3.889-15.791 1.143l-31.553-16.582-31.553 16.582c-5.039 2.666-11.162 2.227-15.791-1.143-4.629-3.354-6.943-9.038-5.977-14.663l6.035-35.127-25.518-24.888c-4.102-3.984-5.566-9.946-3.809-15.366 1.758-5.435 6.475-9.39 12.1-10.21l35.273-5.127 15.791-31.963c5.039-10.254 21.855-10.254 26.895 0l15.791 31.963 35.273 5.127c5.625.82 10.342 4.775 12.1 10.21 1.76 5.42.296 11.381-3.806 15.366z" fill="#6200ff" data-original="#000000" style="" class=""/><path d="m497 452h-15v-15c0-8.291-6.709-15-15-15s-15 6.709-15 15v15h-15c-8.291 0-15 6.709-15 15s6.709 15 15 15h15v15c0 8.291 6.709 15 15 15s15-6.709 15-15v-15h15c8.291 0 15-6.709 15-15s-6.709-15-15-15z" fill="#6200ff" data-original="#000000" style="" class=""/><path d="m0 227c0 8.291 6.709 15 15 15h15v15c0 8.291 6.709 15 15 15s15-6.709 15-15v-15h15c8.291 0 15-6.709 15-15s-6.709-15-15-15h-15v-15c0-8.291-6.709-15-15-15s-15 6.709-15 15v15h-15c-8.291 0-15 6.709-15 15z" fill="#6200ff" data-original="#000000" style="" class=""/><path d="m479.359 8.071c-2.578-4.966-7.705-8.071-13.3-8.071h-109.864c-4.893 0-9.492 2.388-12.275 6.401l-69.611 101.406 36.546 52.183c19.854 5.836 38.419 14.676 55.109 26.118l112.37-162.51c3.223-4.584 3.604-10.561 1.025-15.527z" fill="#6200ff" data-original="#000000" style="" class=""/><path d="m32.641 8.071c-2.578 4.966-2.197 10.957 1.025 15.527l112.383 162.499c31.329-21.477 69.183-34.097 109.951-34.097 4.42 0 8.749.372 13.096.663l-101.016-146.262c-2.783-4.013-7.383-6.401-12.275-6.401h-109.864c-5.595 0-10.722 3.105-13.3 8.071z" fill="#6200ff" data-original="#000000" style="" class=""/></g></g></svg>
