<?xml version="1.0"?>
<svg xmlns="http://www.w3.org/2000/svg" xmlns:xlink="http://www.w3.org/1999/xlink" xmlns:svgjs="http://svgjs.com/svgjs" version="1.1" width="512" height="512" x="0" y="0" viewBox="0 0 512.004 512.004" style="enable-background:new 0 0 512 512" xml:space="preserve" class=""><g><circle xmlns="http://www.w3.org/2000/svg" cx="256.002" cy="205" r="25" fill="#6200ff" data-original="#000000" style="" class=""/><path xmlns="http://www.w3.org/2000/svg" d="m45.002 375c0 11.046 8.954 20 20 20h176v41.346l-168.955 46.185c-7.991 2.185-12.698 10.434-10.514 18.424 1.822 6.667 7.866 11.049 14.46 11.049 1.31 0 2.641-.173 3.964-.535l175.314-47.923 176.806 47.932c8 2.166 16.235-2.558 18.402-10.553 2.167-7.996-2.557-16.235-10.553-18.402l-168.925-45.795v-41.728h176c11.046 0 20-8.954 20-20v-265h-422v265zm124.542-66.048 9.29-37.258c4.202-16.854 15.863-30.217 30.948-36.939-5.546-8.585-8.78-18.796-8.78-29.755 0-30.327 24.673-55 55-55s55 24.673 55 55c0 10.959-3.234 21.17-8.78 29.755 15.085 6.722 26.747 20.085 30.948 36.94l9.29 37.257c1.874 7.519.214 15.334-4.558 21.44-4.771 6.106-11.951 9.608-19.7 9.608h-124.4c-7.749 0-14.93-3.502-19.7-9.608-4.772-6.106-6.432-13.921-4.558-21.44z" fill="#6200ff" data-original="#000000" style="" class=""/><path xmlns="http://www.w3.org/2000/svg" d="m304.061 278.952c-2.782-11.159-12.757-18.952-24.257-18.952h-47.604c-11.5 0-21.476 7.793-24.257 18.951l-7.742 31.049h111.602z" fill="#6200ff" data-original="#000000" style="" class=""/><path xmlns="http://www.w3.org/2000/svg" d="m492.002 0h-472c-11.046 0-20 8.954-20 20v40c0 11.046 8.954 20 20 20h472c11.046 0 20-8.954 20-20v-40c0-11.046-8.954-20-20-20z" fill="#6200ff" data-original="#000000" style="" class=""/></g></svg>
