<?xml version="1.0"?>
<svg xmlns="http://www.w3.org/2000/svg" xmlns:xlink="http://www.w3.org/1999/xlink" xmlns:svgjs="http://svgjs.com/svgjs" version="1.1" width="512" height="512" x="0" y="0" viewBox="0 0 513 513" style="enable-background:new 0 0 512 512" xml:space="preserve" class=""><g><g xmlns="http://www.w3.org/2000/svg"><path d="m303 378.5c0 8.284-6.716 15-15 15h-64c-8.284 0-15-6.716-15-15v-28c-4.888 0 9.835 3.04-184-41.478v123.478c0 25.916 21.084 47 47 47h368c25.916 0 47-21.084 47-47v-123.415l-184 38.907z" fill="#6200ff" data-original="#000000" style=""/><path d="m481 112.5h-449c-17.673 0-32 14.327-32 32v104.109c0 13.981 9.658 26.109 23.285 29.239l185.715 42.652v-38c0-8.284 6.716-15 15-15h64c8.284 0 15 6.716 15 15v34.828l186.715-39.48c13.627-3.13 23.285-15.258 23.285-29.239v-104.109c0-17.673-14.327-32-32-32z" fill="#6200ff" data-original="#000000" style=""/><path d="m239 297.5h34v66h-34z" fill="#6200ff" data-original="#000000" style=""/><path d="m215 63.5h82v19h30v-34c0-8.284-6.716-15-15-15h-112c-8.284 0-15 6.716-15 15v34h30z" fill="#6200ff" data-original="#000000" style=""/></g></g></svg>
