<?xml version="1.0" encoding="iso-8859-1"?>
<!-- Generator: Adobe Illustrator 19.0.0, SVG Export Plug-In . SVG Version: 6.00 Build 0)  -->
<svg version="1.1" id="Layer_1" xmlns="http://www.w3.org/2000/svg" xmlns:xlink="http://www.w3.org/1999/xlink" x="0px" y="0px"
	 viewBox="0 0 512 512" fill="#fff" xml:space="preserve">
<g>
	<g>
		<path d="M458.667,21.333H53.333C23.936,21.333,0,45.269,0,74.667V352c0,29.397,23.936,53.333,53.333,53.333h149.035
			c-1.515,42.304-12.096,64-31.701,64c-5.888,0-10.667,4.779-10.667,10.667c0,5.888,4.779,10.667,10.667,10.667h170.667
			c5.888,0,10.667-4.779,10.667-10.667c0-5.888-4.779-10.667-10.667-10.667c-19.605,0-30.165-21.696-31.701-64h149.035
			C488.064,405.333,512,381.397,512,352V74.667C512,45.269,488.064,21.333,458.667,21.333z M256,373.333
			c-11.755,0-21.333-9.579-21.333-21.333c0-11.755,9.579-21.333,21.333-21.333s21.333,9.579,21.333,21.333
			C277.333,363.755,267.755,373.333,256,373.333z M416.64,362.667c-5.888,0-10.773-4.779-10.773-10.667
			c0-5.888,4.672-10.667,10.56-10.667h0.213c5.888,0,10.667,4.779,10.667,10.667C427.307,357.888,422.528,362.667,416.64,362.667z
			 M490.667,298.667H21.333v-224c0-17.643,14.357-32,32-32h405.333c17.643,0,32,14.357,32,32V298.667z"/>
	</g>
</g>
<g>
</g>
<g>
</g>
<g>
</g>
<g>
</g>
<g>
</g>
<g>
</g>
<g>
</g>
<g>
</g>
<g>
</g>
<g>
</g>
<g>
</g>
<g>
</g>
<g>
</g>
<g>
</g>
<g>
</g>
</svg>
