<svg height="512pt" viewBox="0 0 512 512" width="512pt" fill="#fff" xmlns="http://www.w3.org/2000/svg"><path d="m274.027344 319.015625c-.011719 0-.011719 0-.011719 0-7.003906 0-13.800781-1.613281-20.1875-4.808594l-56.03125-33.96875c-3.96875-2.402343-7.734375-5.347656-11.160156-8.746093l-61.496094-61.492188h-35.140625v212h272v-212h-74.339844l25.347656 41.660156c8.230469 16.230469 7.527344 32.5625-.6875 45.847656-8.203124 13.273438-22.882812 21.507813-38.292968 21.507813zm0 0"/><path d="m467 120h-262.140625l60 60h112.140625c8.289062 0 15 6.707031 15 15v242c0 8.289062-6.710938 15-15 15h-302c-8.289062 0-15-6.710938-15-15v-242c0-8.292969 6.710938-15 15-15h20.140625l-59.09375-59.09375c-20.539063 4.164062-36.046875 22.34375-36.046875 44.09375v302c0 24.8125 20.1875 45 45 45h422c24.8125 0 45-20.1875 45-45v-302c0-24.8125-20.183594-45-45-45zm-15 317c0 8.289062-6.710938 15-15 15s-15-6.710938-15-15v-62c0-8.292969 6.710938-15 15-15s15 6.707031 15 15zm-30.027344-122c0-8.285156 6.714844-15 15-15s15 6.714844 15 15-6.714844 15-15 15-15-6.714844-15-15zm30.027344-60c0 8.289062-6.710938 15-15 15s-15-6.710938-15-15v-60c0-8.292969 6.710938-15 15-15s15 6.707031 15 15zm0 0"/><path d="m254.609375 213.386719c-1.242187-2.042969-2.726563-3.929688-4.417969-5.621094l-135.339844-135.339844-42.425781 42.425781 135.339844 135.339844c1.691406 1.691406 3.578125 3.175782 5.621094 4.417969l53.855469 32.757813c12.894531 6.449218 26.570312-7.230469 20.125-20.125zm0 0"/><path d="m8.789062 8.789062c-11.71875 11.714844-11.71875 30.707032 0 42.425782l42.425782 42.425781 42.425781-42.425781-42.425781-42.425782c-11.71875-11.71875-30.710938-11.71875-42.425782 0zm0 0"/></svg>